<svg xmlns="http://www.w3.org/2000/svg" width="50" height="50" fill="none"><circle cx="25" cy="25" r="25" fill="#214497"/><mask id="a" width="50" height="50" x="0" y="0" maskUnits="userSpaceOnUse" style="mask-type:alpha"><circle cx="25" cy="25" r="25" fill="#fff"/></mask><g mask="url(#a)"><path fill="#9FAFF5" fill-rule="evenodd" d="M36.063 63.334h-21.74a5.441 5.441 0 0 1-5.434-5.435V18.77a5.44 5.44 0 0 1 5.435-5.435h21.739a5.44 5.44 0 0 1 5.435 5.435V57.9a5.441 5.441 0 0 1-5.435 5.435Z" clip-rule="evenodd"/><path fill="#9FAFF5" d="M8.889 19.855h32.609v34.783H8.889z"/><path fill="#4F6EF7" fill-rule="evenodd" d="M38.237 52.464H12.15c-.6 0-1.087-.487-1.087-1.087v-28.26c0-.6.487-1.088 1.087-1.088h26.087c.6 0 1.087.487 1.087 1.087v28.261c0 .6-.487 1.087-1.087 1.087Z" clip-rule="evenodd"/><circle cx="25.193" cy="16.595" r="1.087" fill="#4F6EF7"/><path fill="#17191D" fill-rule="evenodd" d="M21.818 33.333v-2.084c0-1.608 1.427-2.916 3.182-2.916s3.182 1.308 3.182 2.916v2.084H30v-2.084c0-2.527-2.243-4.583-5-4.583s-5 2.056-5 4.583v2.084h1.818Z" clip-rule="evenodd"/><path fill="#9FAFF5" fill-rule="evenodd" d="M31.373 46.665H18.628c-.47 0-.85-.398-.85-.889V34.221c0-.491.38-.889.85-.889h12.745c.469 0 .85.398.85.889v11.556c0 .49-.381.888-.85.888Z" clip-rule="evenodd"/><path fill="#000" fill-rule="evenodd" d="M26.667 39.365c0-.877-.746-1.588-1.667-1.588-.92 0-1.666.711-1.666 1.588 0 .586.337 1.092.833 1.367v2.6h1.666v-2.6c.497-.275.834-.781.834-1.367Z" clip-rule="evenodd"/></g></svg>